<?xml version="1.0" encoding="UTF-8" standalone="no"?>
<svg width="30px" height="30px" viewBox="0 0 30 30" version="1.1" xmlns="http://www.w3.org/2000/svg" xmlns:xlink="http://www.w3.org/1999/xlink">
    <!-- Generator: Sketch 3.6.1 (26313) - http://www.bohemiancoding.com/sketch -->
    <title>facebook-footer</title>
    <desc>Created with Sketch.</desc>
    <defs></defs>
    <g id="TCFD-Web-Design" stroke="none" stroke-width="1" fill="none" fill-rule="evenodd">
        <g id="tcfd-home" transform="translate(-631.000000, -6320.000000)" fill="#FFFFFF">
            <g id="footer" transform="translate(0.000000, 3583.000000)">
                <g id="Group-+-Rectangle-107-+-copyright" transform="translate(0.000000, 2517.000000)">
                    <g id="Group">
                        <g transform="translate(593.000000, 60.000000)" id="facebook-footer">
                            <g transform="translate(0.000000, 160.000000)">
                                <g transform="translate(38.000000, 0.000000)">
                                    <path d="M14.9762997,29.6801515 C23.1257929,29.6801515 29.7326694,23.0378146 29.7326694,14.842633 C29.7326694,6.6491962 23.1257929,0.00598695361 14.9762997,0.00598695361 C6.82680655,0.00598695361 0.219930077,6.6491962 0.219930077,14.842633 C0.219930077,23.0378146 6.82680655,29.6801515 14.9762997,29.6801515 Z M11.4164817,12.3301652 L12.9417462,12.3301652 L12.9417462,10.8401322 C12.9417462,10.1823541 12.9582308,9.16864313 13.433683,8.54052617 C13.9334284,7.87576905 14.6205782,7.42387379 15.8014001,7.42387379 C17.7257668,7.42387379 18.5369854,7.69954735 18.5369854,7.69954735 L18.1552354,9.97210941 C18.1552354,9.97210941 17.5192748,9.78803624 16.9266948,9.78803624 C16.3332472,9.78803624 15.8014001,10.0017705 15.8014001,10.5976092 L15.8014001,12.3301652 L18.2341883,12.3301652 L18.0650036,14.5503841 L15.8014001,14.5503841 L15.8014001,22.2613922 L12.9417462,22.2613922 L12.9417462,14.5503841 L11.4164817,14.5503841 L11.4164817,12.3301652 Z" id="Fill-1"></path>
                                </g>
                            </g>
                        </g>
                    </g>
                </g>
            </g>
        </g>
    </g>
</svg>