<?xml version="1.0" encoding="UTF-8" standalone="no"?>
<svg width="30px" height="30px" viewBox="0 0 30 30" version="1.1" xmlns="http://www.w3.org/2000/svg" xmlns:xlink="http://www.w3.org/1999/xlink">
    <!-- Generator: Sketch 3.6.1 (26313) - http://www.bohemiancoding.com/sketch -->
    <title>google-footer</title>
    <desc>Created with Sketch.</desc>
    <defs></defs>
    <g id="TCFD-Web-Design" stroke="none" stroke-width="1" fill="none" fill-rule="evenodd">
        <g id="tcfd-home" transform="translate(-669.000000, -6320.000000)" fill="#FFFFFF">
            <g id="footer" transform="translate(0.000000, 3583.000000)">
                <g id="Group-+-Rectangle-107-+-copyright" transform="translate(0.000000, 2517.000000)">
                    <g id="Group">
                        <g transform="translate(593.000000, 60.000000)" id="google-footer">
                            <g transform="translate(0.000000, 160.000000)">
                                <g transform="translate(76.000000, 0.000000)">
                                    <path d="M14.9979901,29.6801515 C23.1474833,29.6801515 29.7543597,23.0378146 29.7543597,14.842633 C29.7543597,6.64832382 23.1474833,0.00598695361 14.9979901,0.00598695361 C6.84849688,0.00598695361 0.2407528,6.64832382 0.2407528,14.842633 C0.2407528,23.0378146 6.84849688,29.6801515 14.9979901,29.6801515 Z M15.4586928,15.9261348 C15.0457088,15.6321411 14.2561806,14.9167857 14.2561806,14.4962963 C14.2561806,14.003399 14.3958663,13.7617484 15.1333378,13.182485 C15.8890291,12.588391 16.423479,11.7526465 16.423479,10.7825548 C16.423479,9.62664508 15.911587,8.50039647 14.951139,8.12788822 L16.4000534,8.12788822 L17.4221021,7.38548886 L12.852382,7.38548886 C10.8039466,7.38548886 8.87524192,8.94618504 8.87524192,10.7528937 C8.87524192,12.6006044 10.2720996,14.0923822 12.3561071,14.0923822 C12.5018662,14.0923822 12.6424195,14.0888927 12.7803701,14.0792964 C12.6450224,14.3392671 12.5478497,14.6332607 12.5478497,14.9368506 C12.5478497,15.4506851 12.8228831,15.8668126 13.1699285,16.2070426 C12.9070416,16.2070426 12.6536985,16.2148941 12.3777974,16.2148941 C9.84002808,16.2148941 7.88703019,17.8392743 7.88703019,19.5247215 C7.88703019,21.1848696 10.0283002,22.2221349 12.5652019,22.2221349 C15.4586928,22.2221349 17.0568368,20.5724555 17.0568368,18.9123075 C17.0568368,17.5810485 16.6664108,16.7845613 15.4586928,15.9261348 Z M22.1080824,13.7591313 L20.3286072,13.7591313 L20.3286072,11.9698703 L18.897045,11.9698703 L18.897045,13.7591313 L17.1175698,13.7591313 L17.1175698,15.198566 L18.897045,15.198566 L18.897045,16.9878269 L20.3286072,16.9878269 L20.3286072,15.198566 L22.1080824,15.198566 L22.1080824,13.7591313 Z" id="Fill-1"></path>
                                    <path d="M13.0172286,13.6239116 C11.8407447,13.5881439 10.7206557,12.2987593 10.5176342,10.7450422 C10.3146126,9.18958036 11.1050085,8.00052006 12.2814923,8.03541544 C13.4579762,8.07118321 14.5780652,9.31782091 14.7810867,10.8724104 C14.9841083,12.4269999 14.19458,13.6596794 13.0172286,13.6239116" id="Path"></path>
                                    <path d="M12.5565258,21.4884594 C10.8013438,21.4884594 9.53462814,20.3726794 9.53462814,19.0309518 C9.53462814,17.7162681 11.1067437,16.6222977 12.8610581,16.6414902 C13.2705717,16.6458521 13.6523216,16.7121534 13.9984994,16.824691 C14.9494037,17.4911929 15.6330831,17.8663183 15.8256933,18.6252929 C15.8621331,18.779705 15.8820882,18.9376066 15.8820882,19.0989978 C15.8820882,20.4407254 15.0231509,21.4884594 12.5565258,21.4884594" id="Path"></path>
                                </g>
                            </g>
                        </g>
                    </g>
                </g>
            </g>
        </g>
    </g>
</svg>