<?xml version="1.0" encoding="UTF-8" standalone="no"?>
<svg width="30px" height="30px" viewBox="0 0 30 30" version="1.1" xmlns="http://www.w3.org/2000/svg" xmlns:xlink="http://www.w3.org/1999/xlink">
    <!-- Generator: Sketch 3.6.1 (26313) - http://www.bohemiancoding.com/sketch -->
    <title>instagram-footer</title>
    <desc>Created with Sketch.</desc>
    <defs></defs>
    <g id="TCFD-Web-Design" stroke="none" stroke-width="1" fill="none" fill-rule="evenodd">
        <g id="tcfd-home" transform="translate(-706.000000, -6320.000000)" fill="#FFFFFF">
            <g id="footer" transform="translate(0.000000, 3583.000000)">
                <g id="Group-+-Rectangle-107-+-copyright" transform="translate(0.000000, 2517.000000)">
                    <g id="Group">
                        <g id="instagram-footer" transform="translate(706.000000, 220.000000)">
                            <path d="M14.955477,29.6801515 C23.1058378,29.6801515 29.7118467,23.0378146 29.7118467,14.842633 C29.7118467,6.6491962 23.1058378,0.00598695361 14.955477,0.00598695361 C6.80598382,0.00598695361 0.199107354,6.6491962 0.199107354,14.842633 C0.199107354,23.0378146 6.80598382,29.6801515 14.955477,29.6801515 Z M7.52777227,12.8252123 C7.52777227,14.1032632 7.38717514,19.3574727 7.73866798,20.2095066 C7.87926512,20.5645208 8.16045939,20.9195349 8.37135509,21.2035463 C8.93374364,21.8425717 9.84762503,22.1265831 10.6912078,22.1265831 L18.7755432,22.1265831 C20.6736045,22.1265831 22.0092773,20.8485321 22.0092773,19.3574727 L22.0092773,12.8252123 C22.0092773,12.541201 21.5171874,12.6122038 21.1656945,12.6122038 L17.7913632,12.6122038 C17.8616618,12.8962151 18.4240504,13.8192519 18.4240504,14.9552972 C18.4240504,17.5824019 15.5418091,19.2864698 13.1516577,18.1504246 C12.1674778,17.6534047 11.3941935,16.6593651 11.1832978,15.452317 C10.9724021,14.4582774 11.323895,13.5352406 11.7456864,12.6122038 L8.44165366,12.6122038 C8.09016082,12.6122038 7.52777227,12.541201 7.52777227,12.8252123 Z M11.8862835,14.8132915 C11.8862835,16.730368 13.8546434,18.363433 15.8933019,17.5113991 C18.5646475,16.304351 18.0725575,12.115184 14.8388234,11.9731783 C13.3625534,11.8311727 11.8862835,13.3222321 11.8862835,14.8132915 Z M10.339715,11.0501415 L9.77732646,11.0501415 L9.77732646,7.57100283 C9.56643075,7.57100283 9.35553505,7.57100283 9.35553505,7.85501415 L9.35553505,11.0501415 L8.7931465,11.0501415 L8.7931465,8.06802264 C8.01986225,8.28103113 7.52777227,9.70108774 7.52777227,10.6951274 C7.52777227,11.689167 7.38717514,12.2571896 7.73866798,12.2571896 L12.0268806,12.2571896 C12.0971792,12.2571896 12.940762,11.6181642 13.1516577,11.5471613 C13.6437477,11.3341528 14.1358377,11.1921472 14.5576291,11.1921472 C15.1903162,11.1211443 15.7527048,11.26315 16.3150933,11.4761585 C18.4240504,12.541201 15.6121076,12.2571896 22.0092773,12.2571896 L22.0092773,10.2691104 C22.0092773,8.77805095 20.6736045,7.5 19.1973346,7.5 L11.323895,7.5 L11.323895,11.0501415 L10.7615064,11.0501415 L10.7615064,7.5 L10.339715,7.5 L10.339715,11.0501415 Z" id="Fill-1"></path>
                        </g>
                    </g>
                </g>
            </g>
        </g>
    </g>
</svg>