<?xml version="1.0" encoding="UTF-8" standalone="no"?>
<svg width="57px" height="58px" viewBox="0 0 57 58" version="1.1" xmlns="http://www.w3.org/2000/svg" xmlns:xlink="http://www.w3.org/1999/xlink" xmlns:sketch="http://www.bohemiancoding.com/sketch/ns">
    <!-- Generator: sketchtool 3.4.4 (395) - http://www.bohemiancoding.com/sketch -->
    <title>pinterest</title>
    <desc>Created with sketchtool.</desc>
    <defs></defs>
    <g id="TCFD---Landing-Page" stroke="none" stroke-width="1" fill="none" fill-rule="evenodd" sketch:type="MSPage">
        <g id="tcfd-landing-page" sketch:type="MSArtboardGroup" transform="translate(-1053.000000, -1701.000000)" fill="#FFFFFF">
            <g id="Rectangle-13-+-Lorem-ipsum-dolor-si-+-WELCOME-Copy-+-Rectangle-12-+-BE-OUR-FRIEND---FOLL-+-Group" sketch:type="MSLayerGroup" transform="translate(0.000000, 810.000000)">
                <g id="Rectangle-12-+-BE-OUR-FRIEND---FOLL-+-Group" transform="translate(0.000000, 756.000000)" sketch:type="MSShapeGroup">
                    <g id="FOLLOW-US-ONLINE-+-Group" transform="translate(341.000000, 128.000000)">
                        <g id="Group" transform="translate(498.293259, 7.000000)">
                            <g id="pinterest" transform="translate(217.150799, 0.000000)">
                                <path d="M24.9431166,49.4669191 C38.5364912,49.4669191 49.5541571,38.3963576 49.5541571,24.7377217 C49.5541571,11.0819937 38.5364912,0.00997825601 24.9431166,0.00997825601 C11.3511891,0.00997825601 0.332076198,11.0819937 0.332076198,24.7377217 C0.332076198,38.3963576 11.3511891,49.4669191 24.9431166,49.4669191 Z M24.9431166,12.3091481 C18.1478764,12.3091481 12.6375964,17.8444288 12.6375964,24.6737468 C12.6375964,29.7350319 15.6676716,34.0853234 20.0044124,35.9972998 C19.9696838,35.135093 19.9986243,34.0969552 20.2185725,33.1576877 C20.4544379,32.1558993 21.8016204,26.4214241 21.8016204,26.4214241 C21.8016204,26.4214241 21.4080289,25.631916 21.4080289,24.4643745 C21.4080289,22.6323667 22.4658059,21.2641767 23.7811537,21.2641767 C24.9011529,21.2641767 25.4423411,22.1089359 25.4423411,23.1209021 C25.4423411,24.2520942 24.7246155,25.9416125 24.3556236,27.507543 C24.0459597,28.8204819 25.0096799,29.8891532 26.2975342,29.8891532 C28.6286952,29.8891532 30.1987198,26.88088 30.1987198,23.3157347 C30.1987198,20.6069803 28.3827006,18.5786859 25.0791372,18.5786859 C21.3458068,18.5786859 19.0204339,21.3746788 19.0204339,24.4978159 C19.0204339,25.5766649 19.3358858,26.3356396 19.8307692,26.9230453 C20.0593995,27.1949385 20.0897871,27.3025326 20.0087535,27.6136831 C19.9494254,27.8390492 19.8148519,28.3886515 19.7584178,28.6052937 C19.6759372,28.9178982 19.4241545,29.0313082 19.1419842,28.9149903 C17.4229157,28.2098127 16.6227096,26.3181919 16.6227096,24.1910273 C16.6227096,20.679679 19.5688572,16.467515 25.4162946,16.467515 C30.1147922,16.467515 33.2070896,19.884355 33.2070896,23.5498246 C33.2070896,28.4002833 30.5228539,32.0235876 26.5666813,32.0235876 C25.2383102,32.0235876 23.9880786,31.3024163 23.5612056,30.4838287 C23.5612056,30.4838287 22.8463741,33.3321646 22.6944362,33.881767 C22.4354183,34.8341202 21.9231707,35.7879275 21.4557808,36.5294545 C22.5627567,36.8580527 23.7319548,37.0368915 24.9431166,37.0368915 C31.7398039,37.0368915 37.2486369,31.5016108 37.2486369,24.6737468 C37.2486369,17.8444288 31.7398039,12.3091481 24.9431166,12.3091481 Z" id="Fill-1"></path>
                            </g>
                        </g>
                    </g>
                </g>
            </g>
        </g>
    </g>
</svg>