<?xml version="1.0" encoding="UTF-8" standalone="no"?>
<svg width="30px" height="30px" viewBox="0 0 30 30" version="1.1" xmlns="http://www.w3.org/2000/svg" xmlns:xlink="http://www.w3.org/1999/xlink">
    <!-- Generator: Sketch 3.6.1 (26313) - http://www.bohemiancoding.com/sketch -->
    <title>twitter-footer</title>
    <desc>Created with Sketch.</desc>
    <defs></defs>
    <g id="TCFD-Web-Design" stroke="none" stroke-width="1" fill="none" fill-rule="evenodd">
        <g id="tcfd-home" transform="translate(-593.000000, -6320.000000)" fill="#FFFFFF">
            <g id="footer" transform="translate(0.000000, 3583.000000)">
                <g id="Group-+-Rectangle-107-+-copyright" transform="translate(0.000000, 2517.000000)">
                    <g id="Group">
                        <g transform="translate(593.000000, 60.000000)" id="twitter-footer">
                            <g transform="translate(0.000000, 160.000000)">
                                <g>
                                    <path d="M14.9346543,29.6801515 C23.0841475,29.6801515 29.691024,23.0378146 29.691024,14.842633 C29.691024,6.6491962 23.0841475,0.00598695361 14.9346543,0.00598695361 C6.7851611,0.00598695361 0.178284631,6.6491962 0.178284631,14.842633 C0.178284631,23.0378146 6.7851611,29.6801515 14.9346543,29.6801515 Z M22.3379999,10.9561593 C21.7940063,11.1986823 21.2092348,11.3626906 20.5966997,11.4359709 C21.2231166,11.0591007 21.7037745,10.4615172 21.929354,9.74965132 C21.3428473,10.0986052 20.69474,10.3524691 20.0032521,10.4885611 C19.45145,9.89621194 18.6619217,9.52632084 17.7899702,9.52632084 C16.1163438,9.52632084 14.7576612,10.8916028 14.7576612,12.5753053 C14.7576612,12.8143387 14.7836896,13.046393 14.8357464,13.2697235 C12.3161969,13.1423553 10.0820922,11.9297406 8.58545902,10.0829023 C8.32430737,10.5347975 8.17507786,11.0591007 8.17507786,11.6174269 C8.17507786,12.6747571 8.71039536,13.6082087 9.52421678,14.1551939 C9.02707427,14.1403634 8.55856301,14.0016542 8.14991707,13.7748342 L8.14991707,13.8123467 C8.14991707,15.2901663 9.19452367,16.5228459 10.5827052,16.802009 C10.3284945,16.8735445 10.0604019,16.9093123 9.78363321,16.9093123 C9.58842018,16.9093123 9.39754522,16.8909922 9.21361117,16.8552244 C9.59883154,18.0660944 10.7189205,18.9489476 12.0455015,18.9716296 C11.0078358,19.7899265 9.70034231,20.2775895 8.28005909,20.2775895 C8.03452448,20.2775895 7.79332794,20.2636313 7.55646946,20.235715 C8.89866748,21.0993759 10.4924734,21.6044866 12.2051424,21.6044866 C17.7838969,21.6044866 20.8326906,16.9590382 20.8326906,12.9294934 C20.8326906,12.796891 20.8300877,12.6642885 20.8248821,12.5343032 C21.417462,12.1042175 21.9328244,11.567701 22.3379999,10.9561593 Z" id="Fill-1"></path>
                                </g>
                            </g>
                        </g>
                    </g>
                </g>
            </g>
        </g>
    </g>
</svg>